<svg xmlns="http://www.w3.org/2000/svg" width="1600" height="990" viewBox="0 0 1600 990">
<defs>
  <marker id="a-8fa0b4" viewBox="0 0 10 10" refX="9" refY="5" markerWidth="7" markerHeight="7" orient="auto-start-reverse"><path d="M0 0 L10 5 L0 10 z" fill="#8fa0b4"/></marker>
  <marker id="b-8fa0b4" viewBox="0 0 10 10" refX="1" refY="5" markerWidth="7" markerHeight="7" orient="auto-start-reverse"><path d="M10 0 L0 5 L10 10 z" fill="#8fa0b4"/></marker>
  <marker id="a-3f74b0" viewBox="0 0 10 10" refX="9" refY="5" markerWidth="7" markerHeight="7" orient="auto-start-reverse"><path d="M0 0 L10 5 L0 10 z" fill="#3f74b0"/></marker>
  <marker id="b-3f74b0" viewBox="0 0 10 10" refX="1" refY="5" markerWidth="7" markerHeight="7" orient="auto-start-reverse"><path d="M10 0 L0 5 L10 10 z" fill="#3f74b0"/></marker>
  <marker id="a-c4663f" viewBox="0 0 10 10" refX="9" refY="5" markerWidth="7" markerHeight="7" orient="auto-start-reverse"><path d="M0 0 L10 5 L0 10 z" fill="#c4663f"/></marker>
  <marker id="b-c4663f" viewBox="0 0 10 10" refX="1" refY="5" markerWidth="7" markerHeight="7" orient="auto-start-reverse"><path d="M10 0 L0 5 L10 10 z" fill="#c4663f"/></marker>
  <marker id="a-3f8f74" viewBox="0 0 10 10" refX="9" refY="5" markerWidth="7" markerHeight="7" orient="auto-start-reverse"><path d="M0 0 L10 5 L0 10 z" fill="#3f8f74"/></marker>
  <marker id="b-3f8f74" viewBox="0 0 10 10" refX="1" refY="5" markerWidth="7" markerHeight="7" orient="auto-start-reverse"><path d="M10 0 L0 5 L10 10 z" fill="#3f8f74"/></marker>
  <marker id="a-7a55a6" viewBox="0 0 10 10" refX="9" refY="5" markerWidth="7" markerHeight="7" orient="auto-start-reverse"><path d="M0 0 L10 5 L0 10 z" fill="#7a55a6"/></marker>
  <marker id="b-7a55a6" viewBox="0 0 10 10" refX="1" refY="5" markerWidth="7" markerHeight="7" orient="auto-start-reverse"><path d="M10 0 L0 5 L10 10 z" fill="#7a55a6"/></marker>
  <marker id="a-a8822c" viewBox="0 0 10 10" refX="9" refY="5" markerWidth="7" markerHeight="7" orient="auto-start-reverse"><path d="M0 0 L10 5 L0 10 z" fill="#a8822c"/></marker>
  <marker id="b-a8822c" viewBox="0 0 10 10" refX="1" refY="5" markerWidth="7" markerHeight="7" orient="auto-start-reverse"><path d="M10 0 L0 5 L10 10 z" fill="#a8822c"/></marker>
  <marker id="a-b4453f" viewBox="0 0 10 10" refX="9" refY="5" markerWidth="7" markerHeight="7" orient="auto-start-reverse"><path d="M0 0 L10 5 L0 10 z" fill="#b4453f"/></marker>
  <marker id="b-b4453f" viewBox="0 0 10 10" refX="1" refY="5" markerWidth="7" markerHeight="7" orient="auto-start-reverse"><path d="M10 0 L0 5 L10 10 z" fill="#b4453f"/></marker>
  <marker id="a-5a6a7d" viewBox="0 0 10 10" refX="9" refY="5" markerWidth="7" markerHeight="7" orient="auto-start-reverse"><path d="M0 0 L10 5 L0 10 z" fill="#5a6a7d"/></marker>
  <marker id="b-5a6a7d" viewBox="0 0 10 10" refX="1" refY="5" markerWidth="7" markerHeight="7" orient="auto-start-reverse"><path d="M10 0 L0 5 L10 10 z" fill="#5a6a7d"/></marker></defs>
<rect width="1600" height="990" fill="#f5f8fc"/>
<text x="44" y="56" font-family="'Helvetica Neue',Helvetica,Arial,sans-serif" font-size="27" font-weight="700" fill="#16222e" text-anchor="start">ThreadLens — exports, identity masking and the diagnostic loop</text><text x="44" y="81" font-family="'Helvetica Neue',Helvetica,Arial,sans-serif" font-size="13.5" font-weight="400" fill="#4a5a6e" text-anchor="start">Everything below is written by the side panel itself: no upload, no network, and no download permission · development build only</text>
<rect x="40" y="100" width="480" height="780" rx="14" ry="14" fill="rgba(63,116,176,0.05)" stroke="rgba(63,116,176,0.45)" stroke-width="1.4" stroke-dasharray="7 5"/><text x="56" y="124" font-family="'Helvetica Neue',Helvetica,Arial,sans-serif" font-size="11.5" font-weight="700" fill="#3f74b0" text-anchor="start" letter-spacing="1.1">A · CONVERSATION EXPORT</text><text x="504" y="124" font-family="'Helvetica Neue',Helvetica,Arial,sans-serif" font-size="11.5" font-weight="400" fill="rgba(63,116,176,0.85)" text-anchor="end">export/conversation.ts</text>
<rect x="60" y="148" width="440" height="107" rx="10" ry="10" fill="#ffffff" stroke="rgba(63,116,176,0.55)" stroke-width="1.5"/><path d="M61.5 159 a9.5 9.5 0 0 1 9.5 -9.5 h0 v104 h0 a9.5 9.5 0 0 1 -9.5 -9.5 z" fill="#3f74b0"/><rect x="61.5" y="149.5" width="6" height="104" fill="#3f74b0" opacity="0.9"/><text x="78" y="170" font-family="'Helvetica Neue',Helvetica,Arial,sans-serif" font-size="14" font-weight="700" fill="#16222e" text-anchor="start">What it writes</text><text x="78" y="190" font-family="'Helvetica Neue',Helvetica,Arial,sans-serif" font-size="12.5" font-weight="400" fill="#4a5a6e" text-anchor="start">one standalone HTML file, no script at all</text><text x="78" y="207" font-family="'Helvetica Neue',Helvetica,Arial,sans-serif" font-size="12.5" font-weight="400" fill="#4a5a6e" text-anchor="start">meta CSP: default-src 'none'; img-src data: https:</text><text x="78" y="224" font-family="'Helvetica Neue',Helvetica,Arial,sans-serif" font-size="12.5" font-weight="400" fill="#4a5a6e" text-anchor="start">messages are re-merged and re-ordered first, so</text><text x="78" y="241" font-family="'Helvetica Neue',Helvetica,Arial,sans-serif" font-size="12.5" font-weight="400" fill="#4a5a6e" text-anchor="start">the file always agrees with the panel</text>
<rect x="60" y="271" width="440" height="107" rx="10" ry="10" fill="#ffffff" stroke="rgba(63,116,176,0.55)" stroke-width="1.5"/><path d="M61.5 282 a9.5 9.5 0 0 1 9.5 -9.5 h0 v104 h0 a9.5 9.5 0 0 1 -9.5 -9.5 z" fill="#3f74b0"/><rect x="61.5" y="272.5" width="6" height="104" fill="#3f74b0" opacity="0.9"/><text x="78" y="293" font-family="'Helvetica Neue',Helvetica,Arial,sans-serif" font-size="14" font-weight="700" fill="#16222e" text-anchor="start">Always the whole thread</text><text x="78" y="313" font-family="'Helvetica Neue',Helvetica,Arial,sans-serif" font-size="12.5" font-weight="400" fill="#4a5a6e" text-anchor="start">the search box and participant filter are ignored</text><text x="78" y="330" font-family="'Helvetica Neue',Helvetica,Arial,sans-serif" font-size="12.5" font-weight="400" fill="#4a5a6e" text-anchor="start">every recovered message, in order, with its</text><text x="78" y="347" font-family="'Helvetica Neue',Helvetica,Arial,sans-serif" font-size="12.5" font-weight="400" fill="#4a5a6e" text-anchor="start">recovery label, participation marker and</text><text x="78" y="364" font-family="'Helvetica Neue',Helvetica,Arial,sans-serif" font-size="12.5" font-weight="400" fill="#4a5a6e" text-anchor="start">quoted-variant sections</text>
<rect x="60" y="394" width="440" height="107" rx="10" ry="10" fill="#ffffff" stroke="rgba(63,116,176,0.55)" stroke-width="1.5"/><path d="M61.5 405 a9.5 9.5 0 0 1 9.5 -9.5 h0 v104 h0 a9.5 9.5 0 0 1 -9.5 -9.5 z" fill="#3f74b0"/><rect x="61.5" y="395.5" width="6" height="104" fill="#3f74b0" opacity="0.9"/><text x="78" y="416" font-family="'Helvetica Neue',Helvetica,Arial,sans-serif" font-size="14" font-weight="700" fill="#16222e" text-anchor="start">Two forms</text><text x="78" y="436" font-family="'Helvetica Neue',Helvetica,Arial,sans-serif" font-size="12.5" font-weight="400" fill="#4a5a6e" text-anchor="start">Text only (no images) — placeholders, a few KB,</text><text x="78" y="453" font-family="'Helvetica Neue',Helvetica,Arial,sans-serif" font-size="12.5" font-weight="400" fill="#4a5a6e" text-anchor="start">identical offline</text><text x="78" y="470" font-family="'Helvetica Neue',Helvetica,Arial,sans-serif" font-size="12.5" font-weight="400" fill="#4a5a6e" text-anchor="start">Masked copy (share-safe) — identities replaced</text><text x="78" y="487" font-family="'Helvetica Neue',Helvetica,Arial,sans-serif" font-size="12.5" font-weight="400" fill="#4a5a6e" text-anchor="start">image embedding was removed in 1.7.2</text>
<rect x="60" y="517" width="440" height="107" rx="10" ry="10" fill="#ffffff" stroke="rgba(63,116,176,0.55)" stroke-width="1.5"/><path d="M61.5 528 a9.5 9.5 0 0 1 9.5 -9.5 h0 v104 h0 a9.5 9.5 0 0 1 -9.5 -9.5 z" fill="#3f74b0"/><rect x="61.5" y="518.5" width="6" height="104" fill="#3f74b0" opacity="0.9"/><text x="78" y="539" font-family="'Helvetica Neue',Helvetica,Arial,sans-serif" font-size="14" font-weight="700" fill="#16222e" text-anchor="start">Never written</text><text x="78" y="559" font-family="'Helvetica Neue',Helvetica,Arial,sans-serif" font-size="12.5" font-weight="400" fill="#4a5a6e" text-anchor="start">attachment bytes · provider URLs · expiring links</text><text x="78" y="576" font-family="'Helvetica Neue',Helvetica,Arial,sans-serif" font-size="12.5" font-weight="400" fill="#4a5a6e" text-anchor="start">the placeholder → person map</text><text x="78" y="593" font-family="'Helvetica Neue',Helvetica,Arial,sans-serif" font-size="12.5" font-weight="400" fill="#4a5a6e" text-anchor="start">an address the quoted history never recorded is</text><text x="78" y="610" font-family="'Helvetica Neue',Helvetica,Arial,sans-serif" font-size="12.5" font-weight="400" fill="#4a5a6e" text-anchor="start">said to be missing, not invented</text>
<rect x="60" y="640" width="440" height="90" rx="10" ry="10" fill="#ffffff" stroke="rgba(63,116,176,0.55)" stroke-width="1.5"/><path d="M61.5 651 a9.5 9.5 0 0 1 9.5 -9.5 h0 v87 h0 a9.5 9.5 0 0 1 -9.5 -9.5 z" fill="#3f74b0"/><rect x="61.5" y="641.5" width="6" height="87" fill="#3f74b0" opacity="0.9"/><text x="78" y="662" font-family="'Helvetica Neue',Helvetica,Arial,sans-serif" font-size="14" font-weight="700" fill="#16222e" text-anchor="start">Filenames</text><text x="78" y="682" font-family="'Helvetica Neue',Helvetica,Arial,sans-serif" font-size="12.5" font-weight="400" fill="#4a5a6e" text-anchor="start">ThreadLens-&lt;subject&gt;-&lt;date&gt;.html</text><text x="78" y="699" font-family="'Helvetica Neue',Helvetica,Arial,sans-serif" font-size="12.5" font-weight="400" fill="#4a5a6e" text-anchor="start">suffixed -no-images or -masked</text><text x="78" y="716" font-family="'Helvetica Neue',Helvetica,Arial,sans-serif" font-size="12.5" font-weight="400" fill="#4a5a6e" text-anchor="start">the subject is sanitised for the filesystem first</text>
<rect x="60" y="746" width="440" height="73" rx="10" ry="10" fill="#ffffff" stroke="rgba(63,116,176,0.55)" stroke-width="1.5"/><path d="M61.5 757 a9.5 9.5 0 0 1 9.5 -9.5 h0 v70 h0 a9.5 9.5 0 0 1 -9.5 -9.5 z" fill="#3f74b0"/><rect x="61.5" y="747.5" width="6" height="70" fill="#3f74b0" opacity="0.9"/><text x="78" y="768" font-family="'Helvetica Neue',Helvetica,Arial,sans-serif" font-size="14" font-weight="700" fill="#16222e" text-anchor="start">Print-ready</text><text x="78" y="788" font-family="'Helvetica Neue',Helvetica,Arial,sans-serif" font-size="12.5" font-weight="400" fill="#4a5a6e" text-anchor="start">@media print repeats table headers, avoids</text><text x="78" y="805" font-family="'Helvetica Neue',Helvetica,Arial,sans-serif" font-size="12.5" font-weight="400" fill="#4a5a6e" text-anchor="start">breaking a row and releases the body overflow</text>
<path d="M90 256 V269" fill="none" stroke="#3f74b0" stroke-width="1.6" stroke-linecap="round" marker-end="url(#a-3f74b0)"/>
<path d="M90 379 V392" fill="none" stroke="#3f74b0" stroke-width="1.6" stroke-linecap="round" marker-end="url(#a-3f74b0)"/>
<path d="M90 502 V515" fill="none" stroke="#3f74b0" stroke-width="1.6" stroke-linecap="round" marker-end="url(#a-3f74b0)"/>
<path d="M90 625 V638" fill="none" stroke="#3f74b0" stroke-width="1.6" stroke-linecap="round" marker-end="url(#a-3f74b0)"/>
<path d="M90 731 V744" fill="none" stroke="#3f74b0" stroke-width="1.6" stroke-linecap="round" marker-end="url(#a-3f74b0)"/>
<rect x="550" y="100" width="560" height="780" rx="14" ry="14" fill="rgba(196,102,63,0.05)" stroke="rgba(196,102,63,0.45)" stroke-width="1.4" stroke-dasharray="7 5"/><text x="566" y="124" font-family="'Helvetica Neue',Helvetica,Arial,sans-serif" font-size="11.5" font-weight="700" fill="#c4663f" text-anchor="start" letter-spacing="1.1">B · IDENTITYMASKER — MAKING A THREAD SHAREABLE</text><text x="1094" y="124" font-family="'Helvetica Neue',Helvetica,Arial,sans-serif" font-size="11.5" font-weight="400" fill="rgba(196,102,63,0.85)" text-anchor="end">export/mask.ts</text>
<rect x="570" y="148" width="520" height="107" rx="10" ry="10" fill="#ffffff" stroke="rgba(196,102,63,0.55)" stroke-width="1.5"/><path d="M571.5 159 a9.5 9.5 0 0 1 9.5 -9.5 h0 v104 h0 a9.5 9.5 0 0 1 -9.5 -9.5 z" fill="#c4663f"/><rect x="571.5" y="149.5" width="6" height="104" fill="#c4663f" opacity="0.9"/><text x="588" y="170" font-family="'Helvetica Neue',Helvetica,Arial,sans-serif" font-size="14" font-weight="700" fill="#16222e" text-anchor="start">Seed before rewriting anything</text><text x="588" y="190" font-family="'Helvetica Neue',Helvetica,Arial,sans-serif" font-size="12.5" font-weight="400" fill="#4a5a6e" text-anchor="start">every address, and the name written beside it, is</text><text x="588" y="207" font-family="'Helvetica Neue',Helvetica,Arial,sans-serif" font-size="12.5" font-weight="400" fill="#4a5a6e" text-anchor="start">learned from the headers first — addressed</text><text x="588" y="224" font-family="'Helvetica Neue',Helvetica,Arial,sans-serif" font-size="12.5" font-weight="400" fill="#4a5a6e" text-anchor="start">identities before name-only ones — then from all</text><text x="588" y="241" font-family="'Helvetica Neue',Helvetica,Arial,sans-serif" font-size="12.5" font-weight="400" fill="#4a5a6e" text-anchor="start">markup, so two copies of one email mask alike</text>
<rect x="570" y="269" width="520" height="107" rx="10" ry="10" fill="#ffffff" stroke="rgba(196,102,63,0.55)" stroke-width="1.5"/><path d="M571.5 280 a9.5 9.5 0 0 1 9.5 -9.5 h0 v104 h0 a9.5 9.5 0 0 1 -9.5 -9.5 z" fill="#c4663f"/><rect x="571.5" y="270.5" width="6" height="104" fill="#c4663f" opacity="0.9"/><text x="588" y="291" font-family="'Helvetica Neue',Helvetica,Arial,sans-serif" font-size="14" font-weight="700" fill="#16222e" text-anchor="start">People</text><text x="588" y="311" font-family="'Helvetica Neue',Helvetica,Arial,sans-serif" font-size="12.5" font-weight="400" fill="#4a5a6e" text-anchor="start">Person 1  ·  person1@company1.example</text><text x="588" y="328" font-family="'Helvetica Neue',Helvetica,Arial,sans-serif" font-size="12.5" font-weight="400" fill="#4a5a6e" text-anchor="start">an author the history names without an address</text><text x="588" y="345" font-family="'Helvetica Neue',Helvetica,Arial,sans-serif" font-size="12.5" font-weight="400" fill="#4a5a6e" text-anchor="start">keeps that shape (unknown:person 3), because it</text><text x="588" y="362" font-family="'Helvetica Neue',Helvetica,Arial,sans-serif" font-size="12.5" font-weight="400" fill="#4a5a6e" text-anchor="start">is evidence in itself and it changes how it merges</text>
<rect x="570" y="390" width="520" height="124" rx="10" ry="10" fill="#ffffff" stroke="rgba(196,102,63,0.55)" stroke-width="1.5"/><path d="M571.5 401 a9.5 9.5 0 0 1 9.5 -9.5 h0 v121 h0 a9.5 9.5 0 0 1 -9.5 -9.5 z" fill="#c4663f"/><rect x="571.5" y="391.5" width="6" height="121" fill="#c4663f" opacity="0.9"/><text x="588" y="412" font-family="'Helvetica Neue',Helvetica,Arial,sans-serif" font-size="14" font-weight="700" fill="#16222e" text-anchor="start">Companies and domains</text><text x="588" y="432" font-family="'Helvetica Neue',Helvetica,Arial,sans-serif" font-size="12.5" font-weight="400" fill="#4a5a6e" text-anchor="start">company1.example, consistently</text><text x="588" y="449" font-family="'Helvetica Neue',Helvetica,Arial,sans-serif" font-size="12.5" font-weight="400" fill="#4a5a6e" text-anchor="start">consumer hosts stay readable — gmail.com</text><text x="588" y="466" font-family="'Helvetica Neue',Helvetica,Arial,sans-serif" font-size="12.5" font-weight="400" fill="#4a5a6e" text-anchor="start">identifies nobody</text><text x="588" y="483" font-family="'Helvetica Neue',Helvetica,Arial,sans-serif" font-size="12.5" font-weight="400" fill="#4a5a6e" text-anchor="start">the distinctive label of a correspondent’s own</text><text x="588" y="500" font-family="'Helvetica Neue',Helvetica,Arial,sans-serif" font-size="12.5" font-weight="400" fill="#4a5a6e" text-anchor="start">domain also becomes Company 1 in the prose</text>
<rect x="570" y="528" width="520" height="107" rx="10" ry="10" fill="#ffffff" stroke="rgba(196,102,63,0.55)" stroke-width="1.5"/><path d="M571.5 539 a9.5 9.5 0 0 1 9.5 -9.5 h0 v104 h0 a9.5 9.5 0 0 1 -9.5 -9.5 z" fill="#c4663f"/><rect x="571.5" y="529.5" width="6" height="104" fill="#c4663f" opacity="0.9"/><text x="588" y="550" font-family="'Helvetica Neue',Helvetica,Arial,sans-serif" font-size="14" font-weight="700" fill="#16222e" text-anchor="start">Short forms</text><text x="588" y="570" font-family="'Helvetica Neue',Helvetica,Arial,sans-serif" font-size="12.5" font-weight="400" fill="#4a5a6e" text-anchor="start">capitalised openings of a known token: Sid for</text><text x="588" y="587" font-family="'Helvetica Neue',Helvetica,Arial,sans-serif" font-size="12.5" font-weight="400" fill="#4a5a6e" text-anchor="start">Siddharth, Elevation for elevationservices —</text><text x="588" y="604" font-family="'Helvetica Neue',Helvetica,Arial,sans-serif" font-size="12.5" font-weight="400" fill="#4a5a6e" text-anchor="start">and across a capital, so WarehousePartners in a</text><text x="588" y="621" font-family="'Helvetica Neue',Helvetica,Arial,sans-serif" font-size="12.5" font-weight="400" fill="#4a5a6e" text-anchor="start">filename is caught; lowercase words are left alone</text>
<rect x="570" y="649" width="520" height="73" rx="10" ry="10" fill="#ffffff" stroke="rgba(196,102,63,0.55)" stroke-width="1.5"/><path d="M571.5 660 a9.5 9.5 0 0 1 9.5 -9.5 h0 v70 h0 a9.5 9.5 0 0 1 -9.5 -9.5 z" fill="#c4663f"/><rect x="571.5" y="650.5" width="6" height="70" fill="#c4663f" opacity="0.9"/><text x="588" y="671" font-family="'Helvetica Neue',Helvetica,Arial,sans-serif" font-size="14" font-weight="700" fill="#16222e" text-anchor="start">Numbers</text><text x="588" y="691" font-family="'Helvetica Neue',Helvetica,Arial,sans-serif" font-size="12.5" font-weight="400" fill="#4a5a6e" text-anchor="start">a 9–15 digit run → [phone-1] or [number-1]</text><text x="588" y="708" font-family="'Helvetica Neue',Helvetica,Arial,sans-serif" font-size="12.5" font-weight="400" fill="#4a5a6e" text-anchor="start">anything shaped like a date is evidence and stays</text>
<rect x="570" y="736" width="520" height="107" rx="10" ry="10" fill="#ffffff" stroke="rgba(196,102,63,0.55)" stroke-width="1.5"/><path d="M571.5 747 a9.5 9.5 0 0 1 9.5 -9.5 h0 v104 h0 a9.5 9.5 0 0 1 -9.5 -9.5 z" fill="#c4663f"/><rect x="571.5" y="737.5" width="6" height="104" fill="#c4663f" opacity="0.9"/><text x="588" y="758" font-family="'Helvetica Neue',Helvetica,Arial,sans-serif" font-size="14" font-weight="700" fill="#16222e" text-anchor="start">Deliberately never masked</text><text x="588" y="778" font-family="'Helvetica Neue',Helvetica,Arial,sans-serif" font-size="12.5" font-weight="400" fill="#4a5a6e" text-anchor="start">calendar words — a colleague called May must not</text><text x="588" y="795" font-family="'Helvetica Neue',Helvetica,Arial,sans-serif" font-size="12.5" font-weight="400" fill="#4a5a6e" text-anchor="start">rewrite the dates; role words (info, sales, team);</text><text x="588" y="812" font-family="'Helvetica Neue',Helvetica,Arial,sans-serif" font-size="12.5" font-weight="400" fill="#4a5a6e" text-anchor="start">classes, layout, ids-as-structure and every clock</text><text x="588" y="829" font-family="'Helvetica Neue',Helvetica,Arial,sans-serif" font-size="12.5" font-weight="400" fill="#4a5a6e" text-anchor="start">— the copy has to still reproduce the problem</text>
<rect x="1140" y="100" width="420" height="780" rx="14" ry="14" fill="rgba(63,143,116,0.05)" stroke="rgba(63,143,116,0.45)" stroke-width="1.4" stroke-dasharray="7 5"/><text x="1156" y="124" font-family="'Helvetica Neue',Helvetica,Arial,sans-serif" font-size="11.5" font-weight="700" fill="#3f8f74" text-anchor="start" letter-spacing="1.1">C · CAPTURE, REPLAY AND FIDELITY</text><text x="1544" y="124" font-family="'Helvetica Neue',Helvetica,Arial,sans-serif" font-size="11.5" font-weight="400" fill="rgba(63,143,116,0.85)" text-anchor="end">shared/capture*.ts</text>
<rect x="1160" y="148" width="380" height="107" rx="10" ry="10" fill="#ffffff" stroke="rgba(63,143,116,0.55)" stroke-width="1.5"/><path d="M1161.5 159 a9.5 9.5 0 0 1 9.5 -9.5 h0 v104 h0 a9.5 9.5 0 0 1 -9.5 -9.5 z" fill="#3f8f74"/><rect x="1161.5" y="149.5" width="6" height="104" fill="#3f8f74" opacity="0.9"/><text x="1178" y="170" font-family="'Helvetica Neue',Helvetica,Arial,sans-serif" font-size="14" font-weight="700" fill="#16222e" text-anchor="start">capture() — in the mail page</text><text x="1178" y="190" font-family="'Helvetica Neue',Helvetica,Arial,sans-serif" font-size="12.5" font-weight="400" fill="#4a5a6e" text-anchor="start">the provider container for every row, plus the</text><text x="1178" y="207" font-family="'Helvetica Neue',Helvetica,Arial,sans-serif" font-size="12.5" font-weight="400" fill="#4a5a6e" text-anchor="start">exact snapshot the parser received for it</text><text x="1178" y="224" font-family="'Helvetica Neue',Helvetica,Arial,sans-serif" font-size="12.5" font-weight="400" fill="#4a5a6e" text-anchor="start">picture payloads folded to a short digest</text><text x="1178" y="241" font-family="'Helvetica Neue',Helvetica,Arial,sans-serif" font-size="12.5" font-weight="400" fill="#4a5a6e" text-anchor="start">512 KB per container · 16 MB per file</text>
<rect x="1160" y="269" width="380" height="107" rx="10" ry="10" fill="#ffffff" stroke="rgba(63,143,116,0.55)" stroke-width="1.5"/><path d="M1161.5 280 a9.5 9.5 0 0 1 9.5 -9.5 h0 v104 h0 a9.5 9.5 0 0 1 -9.5 -9.5 z" fill="#3f8f74"/><rect x="1161.5" y="270.5" width="6" height="104" fill="#3f8f74" opacity="0.9"/><text x="1178" y="291" font-family="'Helvetica Neue',Helvetica,Arial,sans-serif" font-size="14" font-weight="700" fill="#16222e" text-anchor="start">maskCapture()</text><text x="1178" y="311" font-family="'Helvetica Neue',Helvetica,Arial,sans-serif" font-size="12.5" font-weight="400" fill="#4a5a6e" text-anchor="start">every attribute is treated as identifying unless</text><text x="1178" y="328" font-family="'Helvetica Neue',Helvetica,Arial,sans-serif" font-size="12.5" font-weight="400" fill="#4a5a6e" text-anchor="start">it is structural; provider ids renumbered</text><text x="1178" y="345" font-family="'Helvetica Neue',Helvetica,Arial,sans-serif" font-size="12.5" font-weight="400" fill="#4a5a6e" text-anchor="start">consistently; each picture address replaced by a</text><text x="1178" y="362" font-family="'Helvetica Neue',Helvetica,Arial,sans-serif" font-size="12.5" font-weight="400" fill="#4a5a6e" text-anchor="start">placeholder of its own kind</text>
<rect x="1160" y="390" width="380" height="73" rx="10" ry="10" fill="#ffffff" stroke="rgba(63,143,116,0.55)" stroke-width="1.5"/><path d="M1161.5 401 a9.5 9.5 0 0 1 9.5 -9.5 h0 v70 h0 a9.5 9.5 0 0 1 -9.5 -9.5 z" fill="#3f8f74"/><rect x="1161.5" y="391.5" width="6" height="70" fill="#3f8f74" opacity="0.9"/><text x="1178" y="412" font-family="'Helvetica Neue',Helvetica,Arial,sans-serif" font-size="14" font-weight="700" fill="#16222e" text-anchor="start">replayCapture()</text><text x="1178" y="432" font-family="'Helvetica Neue',Helvetica,Arial,sans-serif" font-size="12.5" font-weight="400" fill="#4a5a6e" text-anchor="start">parses the file through the real parser and the</text><text x="1178" y="449" font-family="'Helvetica Neue',Helvetica,Arial,sans-serif" font-size="12.5" font-weight="400" fill="#4a5a6e" text-anchor="start">real cache — in batches, and again whole</text>
<rect x="1160" y="477" width="380" height="124" rx="10" ry="10" fill="#ffffff" stroke="rgba(63,143,116,0.55)" stroke-width="1.5"/><path d="M1161.5 488 a9.5 9.5 0 0 1 9.5 -9.5 h0 v121 h0 a9.5 9.5 0 0 1 -9.5 -9.5 z" fill="#3f8f74"/><rect x="1161.5" y="478.5" width="6" height="121" fill="#3f8f74" opacity="0.9"/><text x="1178" y="499" font-family="'Helvetica Neue',Helvetica,Arial,sans-serif" font-size="14" font-weight="700" fill="#16222e" text-anchor="start">captureFidelity()</text><text x="1178" y="519" font-family="'Helvetica Neue',Helvetica,Arial,sans-serif" font-size="12.5" font-weight="400" fill="#4a5a6e" text-anchor="start">threadShape(): one identity-free line per message</text><text x="1178" y="536" font-family="'Helvetica Neue',Helvetica,Arial,sans-serif" font-size="12.5" font-weight="400" fill="#4a5a6e" text-anchor="start">original vs masked  →  same structure?</text><text x="1178" y="553" font-family="'Helvetica Neue',Helvetica,Arial,sans-serif" font-size="12.5" font-weight="400" fill="#4a5a6e" text-anchor="start">batched vs whole   →  order independent?</text><text x="1178" y="570" font-family="'Helvetica Neue',Helvetica,Arial,sans-serif" font-size="12.5" font-weight="400" fill="#4a5a6e" text-anchor="start">the verdict is written into both files and shown</text><text x="1178" y="587" font-family="'Helvetica Neue',Helvetica,Arial,sans-serif" font-size="12.5" font-weight="400" fill="#4a5a6e" text-anchor="start">in the panel before either is saved</text>
<rect x="1160" y="615" width="380" height="73" rx="10" ry="10" fill="#ffffff" stroke="rgba(63,143,116,0.55)" stroke-width="1.5"/><path d="M1161.5 626 a9.5 9.5 0 0 1 9.5 -9.5 h0 v70 h0 a9.5 9.5 0 0 1 -9.5 -9.5 z" fill="#3f8f74"/><rect x="1161.5" y="616.5" width="6" height="70" fill="#3f8f74" opacity="0.9"/><text x="1178" y="637" font-family="'Helvetica Neue',Helvetica,Arial,sans-serif" font-size="14" font-weight="700" fill="#16222e" text-anchor="start">npm run replay</text><text x="1178" y="657" font-family="'Helvetica Neue',Helvetica,Arial,sans-serif" font-size="12.5" font-weight="400" fill="#4a5a6e" text-anchor="start">reads a capture back with no browser and no</text><text x="1178" y="674" font-family="'Helvetica Neue',Helvetica,Arial,sans-serif" font-size="12.5" font-weight="400" fill="#4a5a6e" text-anchor="start">mailbox, and prints what the parser made of it</text>
<rect x="1160" y="702" width="380" height="90" rx="10" ry="10" fill="#ffffff" stroke="rgba(63,143,116,0.55)" stroke-width="1.5"/><path d="M1161.5 713 a9.5 9.5 0 0 1 9.5 -9.5 h0 v87 h0 a9.5 9.5 0 0 1 -9.5 -9.5 z" fill="#3f8f74"/><rect x="1161.5" y="703.5" width="6" height="87" fill="#3f8f74" opacity="0.9"/><text x="1178" y="724" font-family="'Helvetica Neue',Helvetica,Arial,sans-serif" font-size="14" font-weight="700" fill="#16222e" text-anchor="start">What a capture is not</text><text x="1178" y="744" font-family="'Helvetica Neue',Helvetica,Arial,sans-serif" font-size="12.5" font-weight="400" fill="#4a5a6e" text-anchor="start">not a copy of the mailbox: a container over</text><text x="1178" y="761" font-family="'Helvetica Neue',Helvetica,Arial,sans-serif" font-size="12.5" font-weight="400" fill="#4a5a6e" text-anchor="start">512 KB is shortened and the file says so —</text><text x="1178" y="778" font-family="'Helvetica Neue',Helvetica,Arial,sans-serif" font-size="12.5" font-weight="400" fill="#4a5a6e" text-anchor="start">the parser’s own input is never truncated</text>
<rect x="1160" y="806" width="380" height="73" rx="10" ry="10" fill="#ffffff" stroke="rgba(63,143,116,0.55)" stroke-width="1.5"/><path d="M1161.5 817 a9.5 9.5 0 0 1 9.5 -9.5 h0 v70 h0 a9.5 9.5 0 0 1 -9.5 -9.5 z" fill="#3f8f74"/><rect x="1161.5" y="807.5" width="6" height="70" fill="#3f8f74" opacity="0.9"/><text x="1178" y="828" font-family="'Helvetica Neue',Helvetica,Arial,sans-serif" font-size="14" font-weight="700" fill="#16222e" text-anchor="start">Format version</text><text x="1178" y="848" font-family="'Helvetica Neue',Helvetica,Arial,sans-serif" font-size="12.5" font-weight="400" fill="#4a5a6e" text-anchor="start">CAPTURE_FORMAT is raised whenever the shape</text><text x="1178" y="865" font-family="'Helvetica Neue',Helvetica,Arial,sans-serif" font-size="12.5" font-weight="400" fill="#4a5a6e" text-anchor="start">changes, so an old file is recognised, not misread</text>
<text x="44" y="920" font-family="'Helvetica Neue',Helvetica,Arial,sans-serif" font-size="11.5" font-weight="400" fill="#93a3b6" text-anchor="start">Production omits all of this: the export buttons, the masking code and the CAPTURE_THREAD_SOURCE handler are compiled out, and packaging fails if any of them appears in the bundle.</text>
<text x="44" y="946" font-family="'Helvetica Neue',Helvetica,Arial,sans-serif" font-size="11.5" font-weight="400" fill="#93a3b6" text-anchor="start">Masking is a strong default, not a guarantee: a nickname sharing no opening letters, an identity written only inside a picture, or a company named in prose but never in an address can survive. Read the file before sending it.</text>
</svg>